<svg width="745" height="733" viewBox="0 0 745 733" fill="none" xmlns="http://www.w3.org/2000/svg">
<g opacity="0.17" clip-path="url(#clip0_251_52003)">
<path d="M-299.609 721.666C-313.649 670.764 -263.494 624.462 -241.303 606.958C-181.538 559.717 -109.633 525.666 -40.1053 492.747C65.691 442.65 175.016 390.884 238.847 292.472C294.987 205.947 311.577 90.9312 289.636 -59.1124C288.907 -64.0844 288.159 -69.0501 287.392 -74.0094L287.104 -75.9266C281.657 -111.53 276.018 -148.322 280.583 -184.328C284.15 -212.243 296.349 -245.469 320.074 -267.709C327.438 -274.673 335.901 -280.373 345.123 -284.58C386.993 -303.504 434.693 -287.878 480.84 -272.77C526.987 -257.662 574.649 -242.094 616.001 -261.727V-265.887C575.723 -245.679 530.132 -260.135 481.953 -275.991C435.154 -291.329 386.782 -307.146 343.704 -287.667C301.853 -268.744 281.887 -222.117 277.149 -184.673C272.508 -148.245 278.185 -111.166 283.671 -75.3898C284.54 -69.7914 285.378 -64.2058 286.183 -58.6331C308.01 90.5094 291.573 204.739 235.932 290.555C172.638 388.181 68.6064 437.416 -41.4671 489.565C-111.205 522.58 -183.283 556.668 -243.412 604.216C-266.102 622.238 -317.524 669.709 -302.87 722.587C-301.932 725.799 -300.779 728.944 -299.418 732H-295.582C-297.207 728.673 -298.554 725.216 -299.609 721.666Z" fill="#20ACA3"/>
<path d="M-229.819 561.606C-239.86 525.187 -203.99 492.06 -188.12 479.537C-145.378 445.738 -93.9531 421.376 -44.2292 397.824C31.4335 361.981 109.62 324.944 155.27 254.534C195.42 192.629 207.285 110.34 191.593 2.98917C191.071 -0.568148 190.536 -4.1209 189.988 -7.66907L189.782 -9.04078C185.886 -34.5135 181.853 -60.8367 185.118 -86.5976C187.669 -106.57 196.393 -130.342 213.361 -146.253C218.627 -151.236 224.68 -155.315 231.276 -158.325C261.22 -171.863 295.334 -160.684 328.337 -149.875C361.34 -139.066 395.426 -127.927 425 -141.974V-144.95C396.194 -130.492 363.589 -140.835 329.132 -152.179C295.663 -163.153 261.069 -174.47 230.261 -160.533C200.33 -146.994 186.051 -113.634 182.663 -86.8445C179.343 -60.7819 183.403 -34.2529 187.327 -8.6567C187.948 -4.65129 188.547 -0.655024 189.123 3.33209C204.733 110.038 192.978 191.765 153.185 253.163C107.919 323.01 33.5185 358.236 -45.2031 395.547C-95.0779 419.168 -146.626 443.557 -189.629 477.575C-205.856 490.469 -242.631 524.433 -232.151 562.265C-231.481 564.563 -230.656 566.813 -229.682 569H-226.939C-228.101 566.619 -229.065 564.146 -229.819 561.606Z" fill="#20ACA3"/>
<path d="M-329.819 451.606C-339.86 415.187 -303.99 382.06 -288.12 369.537C-245.378 335.738 -193.953 311.376 -144.229 287.824C-68.5665 251.981 9.62006 214.944 55.27 144.534C95.4195 82.6288 107.285 0.33959 91.5925 -107.011C91.0713 -110.568 90.5363 -114.121 89.9876 -117.669L89.7819 -119.041C85.8863 -144.514 81.8535 -170.837 85.1181 -196.598C87.6695 -216.57 96.3935 -240.342 113.361 -256.253C118.627 -261.236 124.68 -265.315 131.276 -268.325C161.22 -281.863 195.334 -270.684 228.337 -259.875C261.34 -249.066 295.426 -237.927 325 -251.974V-254.95C296.194 -240.492 263.589 -250.835 229.132 -262.179C195.663 -273.153 161.069 -284.47 130.261 -270.533C100.33 -256.994 86.0509 -223.634 82.6628 -196.844C79.3433 -170.782 83.4035 -144.253 87.3265 -118.657C87.9484 -114.651 88.5473 -110.655 89.1235 -106.668C104.733 0.0378114 92.9779 81.7646 53.1851 143.163C7.91917 213.01 -66.4815 248.236 -145.203 285.547C-195.078 309.168 -246.626 333.557 -289.629 367.575C-305.856 380.469 -342.631 414.433 -332.151 452.265C-331.481 454.563 -330.656 456.813 -329.682 459H-326.939C-328.101 456.619 -329.065 454.146 -329.819 451.606Z" fill="#20ACA3"/>
<path d="M609.211 547.062C603.303 582.569 591.949 607.839 574.687 624.078C573.255 625.356 571.778 626.634 570.256 627.912C538.533 653.431 503.127 649.692 465.611 645.724C441.003 643.135 415.57 640.451 391.653 647.008C368.445 653.354 353.792 666.411 348.019 685.698C343.838 699.732 345.084 715.895 349.496 731.98H353.332C348.824 716.125 347.405 700.212 351.414 686.695C353.788 678.407 358.369 670.92 364.667 665.03C372.643 657.918 382.247 652.875 392.631 650.344C415.916 643.979 441.003 646.625 465.285 649.194C501.842 653.028 539.645 657.054 572.5 630.616C592.984 614.051 606.18 586.922 612.778 547.618C614.082 539.719 615.156 531.647 616.115 524.247V499.553C614.965 506.877 613.929 514.2 612.989 521.429C611.819 529.443 610.649 538.396 609.211 547.062Z" fill="#65E681"/>
<path d="M274.099 719.749C291.803 705.676 300.644 684.203 309.084 663.382C316.756 644.631 324.523 625.267 338.947 611.616C339.045 611.543 339.135 611.459 339.215 611.367C362.96 589.107 396.18 587.324 431.279 585.446C464 583.682 497.795 581.841 522.92 561.844C548.046 541.847 556.946 509.772 565.366 478.828C569.739 462.742 574.284 446.139 581.074 431.222C589.372 413.42 601.263 397.526 616 384.537V379.898C599.839 393.558 586.842 410.567 577.909 429.746C570.985 444.931 566.401 461.668 562.009 477.831C553.321 509.638 545.054 539.796 520.811 559.083C496.567 578.371 463.271 580.173 431.145 581.899C396.908 583.816 361.483 585.733 336.818 608.74C336.733 608.834 336.643 608.924 336.549 609.008C321.589 623.158 313.533 642.867 305.861 661.924C297.173 683.359 288.964 703.471 271.913 716.93C241.532 740.723 197.111 731.252 166.212 722.049L163.336 721.206C127.968 710.622 94.5563 700.634 57.9419 712.386C36.2111 719.346 18.7957 718.79 8.89889 710.853C0.747427 704.257 -2.70494 692.639 -1.36235 676.342L-1.07466 673.409C0.287146 663.949 2.42982 654.619 5.33142 645.513C7.07679 639.416 8.87972 633.223 10.2031 626.992C13.2144 612.805 14.4802 592.808 3.4518 578.045C0.525789 574.382 -2.72216 570.987 -6.25323 567.903C-10.7605 563.761 -14.9993 559.831 -17.7612 554.712C-19.6041 551.115 -20.6222 547.153 -20.7416 543.114C-20.8611 539.075 -20.0788 535.059 -18.4516 531.36C-13.58 519.262 -1.51578 508.353 11.5266 504.231C25.6238 499.726 40.1622 499.917 55.6403 500.109C63.8877 500.205 72.3844 500.301 80.5742 499.61C134.489 495.086 178.718 458.294 211.266 426.755C329.798 311.721 387.376 173.679 369.213 47.6775C366.489 28.7927 362.02 9.96535 357.705 -8.24849L357.57 -8.78531C353.734 -24.8135 349.898 -41.3785 347.175 -57.8476C340.193 -100.602 343.473 -134.787 357.187 -162.376C362.402 -172.737 369.416 -182.092 377.901 -190.003C394.971 -205.936 417.987 -216.365 442.211 -212.531C458.035 -210.077 471.806 -202.331 486.325 -194.125C497.469 -187.875 508.977 -181.395 521.424 -177.618C536.456 -173.297 552.345 -172.898 567.576 -176.459C582.806 -180.02 596.869 -187.422 608.424 -197.96L609.46 -198.957C611.838 -201.258 613.814 -203.865 615.943 -206.377V-211.745C613.198 -208.158 610.226 -204.751 607.043 -201.545L606.046 -200.586C594.94 -190.456 581.424 -183.338 566.785 -179.911C552.146 -176.484 536.873 -176.863 522.422 -181.011C510.338 -184.693 499.003 -191.058 488.032 -197.25C473.801 -205.245 459.09 -213.509 442.672 -216.039C404.312 -221.964 369.117 -194.298 354.022 -163.91C339.982 -135.649 336.607 -100.775 343.703 -57.2724C346.427 -40.5157 350.416 -23.7015 354.271 -7.42409C358.568 10.7322 363.017 29.4829 365.779 48.176C383.789 173.046 326.576 310.11 208.83 424.244C176.742 455.284 133.146 491.654 80.3249 496.064C72.2501 496.735 63.8877 496.639 55.7938 496.562C40.6224 496.37 25.1059 496.179 10.51 500.838C3.39965 503.156 -3.14006 506.95 -8.68004 511.973C-14.22 516.995 -18.6351 523.132 -21.6355 529.98C-23.5024 534.157 -24.3964 538.704 -24.2502 543.277C-24.104 547.85 -22.9214 552.33 -20.7916 556.38C-17.7612 561.978 -13.1196 566.292 -8.57401 570.472C-5.20164 573.38 -2.1009 576.589 0.689888 580.058C10.9703 593.805 9.70446 612.651 6.84665 626.206C5.54242 632.245 3.79705 638.362 2.09004 644.267C-1.07646 654.112 -3.3363 664.226 -4.66129 674.482C-6.44502 692.85 -2.60905 706.002 6.75075 713.556L7.74811 714.323C21.6535 724.561 43.3076 720.726 59.0352 715.703C94.6139 704.2 127.527 714.112 162.338 724.503L165.254 725.385C173.098 727.724 181.806 730.082 190.974 731.923H249.357C258.324 729.528 266.732 725.391 274.099 719.749Z" fill="#35CF78"/>
<path d="M600.503 -106.027C597.02 -102.627 592.936 -99.9032 588.458 -97.994C572.404 -91.437 556.063 -98.9526 538.763 -106.909C523.246 -114.06 507.193 -121.442 490.813 -118.413C468.718 -114.118 455.292 -92.2998 451.878 -72.5713C448.752 -54.7601 451.571 -36.5654 454.314 -18.8885L455.58 -10.5676C470.946 93.8631 452.446 200.468 402.792 293.625C353.138 386.781 274.94 461.59 179.658 507.089L171.698 510.808C156.853 517.748 141.528 524.919 128.869 535.732C115.673 547.236 102.497 567.022 106.026 588.207C107.903 597.862 113.39 606.438 121.37 612.192C122.655 613.146 124 614.017 125.398 614.799C129.192 617.102 133.461 618.51 137.882 618.915C142.302 619.321 146.757 618.713 150.907 617.138C155.567 615.017 159.926 612.29 163.872 609.028C170.068 604.408 175.86 600.075 182.841 600.286C190.763 600.535 196.651 606.498 202.865 612.786C205.744 615.862 208.847 618.72 212.148 621.337C216.562 624.657 221.623 627.014 227.005 628.256C232.387 629.498 237.97 629.596 243.392 628.546C262.745 625.344 284.303 610.16 298.304 589.798C302.14 584.143 305.976 578.046 309.64 572.16L310.292 571.105C324.121 548.75 338.41 525.647 362.404 516.79C376.021 511.767 390.502 512.169 405.827 512.591C421.152 513.013 436.822 513.473 451.207 507.913C474.434 498.979 491.791 475.857 502.743 439.141C504.661 432.91 506.272 426.66 508.075 419.739C513.829 398.266 519.583 376.045 532.664 358.061C552.362 330.951 583.241 318.451 616.096 305.624V301.886C583.721 314.54 550.348 327.711 529.787 356.029C516.361 374.511 510.396 397.039 504.661 418.838C502.973 425.203 501.247 431.779 499.329 438.144C488.703 473.748 472.094 496.122 449.902 504.673C436.17 509.964 421.478 509.562 405.942 509.121C390.867 508.699 375.388 508.258 361.119 513.53C336.07 522.772 321.416 546.392 307.281 569.265L306.935 569.802C303.195 575.841 299.263 582.053 295.427 587.824C282.136 607.169 260.904 622.142 242.798 625.095C237.844 626.01 232.756 625.904 227.845 624.783C222.934 623.662 218.304 621.55 214.239 618.576C211.139 616.114 208.222 613.429 205.512 610.543L205.339 610.37C202.442 607.254 199.299 604.375 195.941 601.762C192.233 598.777 187.673 597.045 182.918 596.816C174.69 596.566 168.13 601.494 161.82 606.248C158.088 609.311 153.983 611.888 149.603 613.917C145.93 615.281 141.995 615.795 138.095 615.42C134.195 615.045 130.431 613.79 127.085 611.751C122.581 609.249 118.678 605.792 115.653 601.622C112.628 597.452 110.553 592.67 109.574 587.613C106.256 567.865 118.531 549.268 131.247 538.359C143.465 527.852 158.54 520.797 173.117 513.971C175.956 512.668 178.603 511.421 181.23 510.137C277.179 464.327 355.928 389.003 405.938 295.202C455.947 201.402 474.588 94.0561 459.128 -11.1044C458.706 -13.8844 458.265 -16.6836 457.843 -19.4636C455.158 -36.7188 452.377 -54.6451 455.407 -71.9578C457.588 -84.4833 463.622 -96.0173 472.669 -104.954C477.896 -110.003 484.457 -113.455 491.58 -114.904C506.924 -117.818 522.422 -110.667 537.44 -103.765C554.701 -95.8275 572.462 -87.6409 589.897 -94.773C601.078 -99.3552 608.77 -109.191 616.135 -118.796V-124.337C615.348 -123.34 614.543 -122.42 613.776 -121.365C609.774 -115.902 605.335 -110.772 600.503 -106.027Z" fill="#65E681"/>
<path d="M569.912 689.975C553.36 694.711 536.271 699.561 523.631 711.448C522.96 712.081 522.288 712.752 521.713 713.366C516.595 718.667 512.672 725.002 510.205 731.944H514.041C516.305 725.931 519.756 720.435 524.187 715.781C524.82 715.11 525.472 714.478 526.105 713.864C538.073 702.648 554.05 698.066 570.91 693.254C582.417 689.937 594.117 686.563 604.513 681.003C608.544 678.752 612.392 676.188 616.021 673.334V669.135C611.916 672.486 607.497 675.433 602.825 677.935C592.659 683.437 581.094 686.754 569.912 689.975Z" fill="#65E681"/>
</g>
<defs>
<clipPath id="clip0_251_52003">
<rect width="745" height="733" fill="white"/>
</clipPath>
</defs>
</svg>
