<svg width="583" height="835" viewBox="0 0 583 835" fill="none" xmlns="http://www.w3.org/2000/svg">
<g clip-path="url(#clip0_251_52183)">
<g opacity="0.13">
<path d="M685.27 1660.81C702.854 1660.36 721.374 1664.45 739.27 1668.37C772.46 1675.72 803.708 1682.52 826.459 1661.44C849.21 1640.36 846.158 1604.02 833.395 1576.7C827.004 1563.73 819.714 1551.21 811.58 1539.25C802.103 1525.58 793.884 1511.07 787.026 1495.91C766.217 1445.95 776.622 1389.64 786.644 1335.21C797.916 1274.05 808.529 1216.32 779.396 1166.29C756.61 1127.18 714.75 1104.78 674.276 1083.07C663.352 1077.22 652.046 1071.18 641.225 1064.84C528.788 998.961 441.529 877.609 401.923 731.987C369.669 613.513 365.75 477.079 390.096 315.334C393.564 293.248 397.241 270.781 400.917 249.041L401.229 247.238C416.35 157.993 432.095 65.696 419.853 -24.451C406.466 -124.098 349.345 -212.962 259.069 -274.609C226.746 -296.66 199.695 -301.931 178.678 -290.142C141.707 -269.512 128.216 -197.187 131.233 -134.708C134.32 -70.0793 121.453 -2.19162 91.8699 72.8038C67.0379 135.733 33.2928 197.033 0.0332642 256.565V248.799C67.6276 127.62 133.834 2.28104 127.384 -134.534C124.54 -193.477 135.777 -270.587 176.805 -293.54C199.209 -306.057 227.613 -300.752 261.22 -277.799C352.397 -215.389 410.107 -125.728 423.633 -25.0058C435.876 65.8347 420.165 158.305 405.009 247.689L404.697 249.492C401.021 271.231 397.206 293.768 393.876 315.819C369.599 477.113 373.414 612.923 405.529 730.877C444.928 875.737 531.562 996.256 643.167 1061.61C653.572 1067.68 664.566 1073.57 675.213 1079.26L676.08 1079.75C717.004 1101.62 759.315 1124.27 782.691 1164.35C812.552 1215.59 801.28 1276.72 790.425 1335.8C780.506 1389.71 770.24 1445.43 790.425 1494.42C797.208 1509.34 805.334 1523.62 814.702 1537.07C823.03 1549.24 830.482 1561.98 837.002 1575.21C850.216 1603.78 852.851 1642.47 829.025 1664.35C805.199 1686.23 771.038 1679.19 738.437 1672.05C732.819 1670.76 727.096 1669.52 721.374 1668.41C709.513 1665.84 697.407 1664.57 685.27 1664.63C658.115 1665.36 635.676 1676.83 615.214 1693.79H609.699C631.688 1674.99 655.965 1661.61 685.27 1660.81Z" fill="#3DC5BC"/>
<path d="M810.126 1834.45C834.002 1834.93 858.928 1840.74 883.015 1846.32C927.683 1856.77 969.744 1866.45 1001.64 1843.2C1033.53 1819.94 1031.16 1777.45 1015.18 1744.91C1007.14 1729.44 997.86 1714.46 987.408 1700.07C975.217 1683.6 964.775 1666.24 956.21 1648.2C930.415 1588.84 947.275 1523.86 963.526 1461.04C981.799 1390.45 999.011 1323.83 961.927 1263.91C932.922 1217.07 877.224 1188.61 823.375 1161.04C808.84 1153.6 793.795 1145.93 779.425 1137.93C630.1 1054.83 517.637 908.554 471.005 736.725C433.024 596.928 434.358 437.825 475.272 250.853C481.054 225.33 487.136 199.375 493.183 174.268L493.695 172.186C518.559 69.1169 544.419 -37.4702 532.205 -143.143C518.901 -259.945 445.742 -366.673 326.275 -443.588C283.499 -471.103 247.057 -478.777 217.97 -466.242C166.809 -444.318 144.981 -360.86 146.028 -287.931C147.065 -212.494 126.3 -134.168 82.5104 -48.5148C45.7547 23.3577 -3.0133 92.8263 -51.0365 160.263L-50.6579 151.219C46.9502 13.9432 142.879 -128.257 140.797 -287.947C139.812 -356.748 158.816 -445.907 215.595 -470.306C246.6 -483.609 284.875 -475.818 329.348 -447.181C450 -369.326 523.921 -261.636 537.36 -143.575C549.541 -37.0941 523.719 69.697 498.801 172.926L498.29 175.008C492.243 200.115 485.968 226.143 480.377 251.633C439.579 438.084 438.134 596.454 475.952 735.637C522.339 906.566 633.996 1051.83 782.217 1134.28C796.036 1141.94 810.664 1149.43 824.831 1156.65L825.984 1157.27C880.436 1185.07 936.734 1213.84 966.492 1261.84C1004.5 1323.21 986.233 1393.75 968.626 1461.94C952.541 1524.16 935.898 1588.46 960.893 1646.66C969.368 1664.42 979.696 1681.51 991.749 1697.7C1002.45 1712.34 1011.94 1727.61 1020.14 1743.38C1036.68 1777.4 1038.37 1822.61 1004.98 1846.73C971.586 1870.86 925.585 1860.72 881.706 1850.55C874.147 1848.74 866.444 1846.96 858.735 1845.35C842.769 1841.68 826.407 1839.52 809.94 1838.89C773.064 1838.2 742.063 1850.29 713.477 1868.87L705.996 1868.56C736.742 1847.92 770.33 1833.72 810.126 1834.45Z" fill="#7BD2CD"/>
<path d="M3.84744 901.463C35.6157 876.534 68.4591 850.738 114.481 856.182C143.232 859.649 171.394 877.193 200.422 909.958C206.838 917.204 213.185 924.901 218.803 931.697C234.306 950.49 250.225 969.836 269.82 984.295C293.299 1001.63 331.935 1015.5 363.46 997.955C398.558 978.296 405.425 928.611 394.084 892.067C385.656 864.884 369.599 840.475 354.096 816.898L353.819 816.482C347.402 806.74 340.778 796.685 334.778 786.491C295.692 720.615 274.849 637.402 274.433 545.868C274.051 456.83 291.947 370.844 309.53 298.484C312.027 288.082 314.594 277.889 317.16 267.626L318.443 262.46C331.484 210.452 344.975 156.675 350.593 102.587C358.535 26.5863 349.206 -39.0131 322.848 -92.3385C313.796 -110.715 298.571 -133.043 275.993 -137.412C274.987 -137.62 273.982 -137.759 272.976 -137.897C248.456 -140.845 227.578 -121.116 218.526 -101.561C209.474 -82.0063 207.879 -59.9549 206.353 -38.3543L205.833 -31.4199C199.88 46.693 182.227 123.469 153.464 196.34C152.25 199.391 151.036 202.442 149.787 205.494C115.106 290.058 65.4765 368.764 17.4426 444.73C11.8936 453.537 5.92838 462.933 -0.106201 472.467V465.533C4.43707 458.321 8.98038 450.971 13.4543 443.863L14.2173 442.65C62.1818 366.718 111.742 288.186 146.25 203.933C177.048 128.74 195.866 49.1842 202.018 -31.836L202.503 -38.7703C204.098 -60.683 205.729 -83.2545 215.058 -103.364C224.665 -124.167 247.034 -144.971 273.427 -141.885C293.785 -139.284 312.131 -122.919 326.281 -94.1761C352.882 -40.1919 362.35 26.1009 354.339 102.83C348.859 157.299 335.333 211.318 322.258 263.326C319.241 275.461 316.224 287.597 313.311 299.454C295.796 371.607 277.935 457.316 278.317 545.903C278.733 636.743 299.403 719.262 338.143 784.619C344.35 795.021 351.495 805.977 357.217 814.679C372.997 838.638 389.228 863.22 397.795 890.958C409.586 929.097 402.269 980.689 365.402 1001.32C332.212 1019.87 291.947 1005.41 267.566 987.45C247.554 972.68 231.497 953.194 215.925 934.332C210.272 927.398 203.96 919.839 197.578 912.593C171.324 883.018 146.007 866.098 120.412 861.07C118.296 860.654 116.181 860.342 114.065 860.065C69.6036 854.83 38.8065 878.996 6.20587 904.549L0.0325623 909.334V904.41C1.2811 903.405 2.59891 902.434 3.84744 901.463Z" fill="#35CF78"/>
<path d="M19.8006 805.041L22.7139 805.7C40.4014 809.167 57.9503 804.07 76.4356 798.765C88.9328 794.694 101.825 791.951 114.897 790.583C163.833 787.289 202.815 822.134 240.479 855.87L241.173 856.494C248.282 862.874 255.67 869.461 262.883 875.529C273.531 884.544 285.218 893.142 298.605 895.777L301.415 896.228C315.287 897.996 331.865 890.542 334.917 876.708C337.518 865.093 330.547 853.616 323.194 842.868C318.651 836.176 314.108 829.623 309.634 823.14C273.461 770.75 239.335 721.343 223.971 655.605C207.561 585.106 205.111 512.078 216.757 440.639L217.624 435.507C221.092 414.288 224.942 392.375 216.896 373.098C214.162 367.051 210.071 361.716 204.94 357.507C199.81 353.298 193.778 350.328 187.312 348.827H186.619C182.66 347.871 178.528 347.888 174.577 348.879C170.627 349.869 166.976 351.803 163.937 354.514C157.001 360.893 154.33 370.567 151.625 379.928C145.66 400.731 138.55 421.535 130.504 442.026C107.233 501.218 75.8462 556.891 37.2454 607.446C33.7773 612.126 29.997 616.772 26.3555 621.314C17.3036 632.825 8.21701 644.51 0.0668335 656.68V649.988C7.45401 639.344 15.4308 629.185 23.3382 618.957C26.9798 614.276 30.6212 609.63 34.1934 605.088C85.7503 537.362 124.244 460.631 147.706 378.819C150.619 368.66 153.602 358.293 161.232 351.081C164.696 347.947 168.872 345.704 173.397 344.544C177.923 343.384 182.663 343.343 187.208 344.424H188.006C195.089 346.09 201.692 349.369 207.299 354.006C212.906 358.643 217.365 364.512 220.329 371.156C228.791 391.509 224.976 414.011 221.3 435.75L220.433 440.882C208.862 511.848 211.289 584.391 227.578 654.426C242.803 719.471 275.161 766.312 312.617 820.574L313.865 822.377C317.958 828.294 322.085 834.304 326.246 840.406C333.738 851.363 341.472 864.122 338.558 877.193C334.917 893.628 316.119 901.672 300.79 899.695C285.461 897.719 272.143 888.15 260.317 878.164C252.826 871.854 245.196 865.023 237.809 858.401C200.734 825.22 162.411 790.895 115.036 794.05C102.245 795.419 89.6325 798.127 77.4067 802.128C59.2336 807.364 40.4709 812.807 21.9163 809.063L18.8989 808.404C12.1344 806.613 5.75284 803.606 0.0668335 799.528V795.021C5.85965 799.722 12.5864 803.138 19.8006 805.041Z" fill="#65E681"/>
<path d="M252.271 26.7944C253.069 24.1246 253.901 21.5936 254.838 19.3053C261.774 1.96929 272.178 -6.6987 283.485 -4.47969C293.542 -2.46872 300.34 7.30877 303.704 24.6447C313.618 76.3993 313.524 129.573 303.426 181.293C302.837 184.344 302.213 187.776 301.554 191.521L301.38 192.422C295.242 226.574 284.941 283.714 251.994 293.976C241.325 297.011 229.929 296.21 219.79 291.712C209.652 287.214 201.411 279.304 196.503 269.359C187.521 250.012 192.723 228.308 199.382 205.875L252.271 26.7944ZM199.902 267.764C202.938 273.821 207.336 279.092 212.752 283.165C218.167 287.238 224.453 290.001 231.116 291.237C237.644 292.574 244.402 292.264 250.78 290.336C281.542 280.732 291.565 225.118 297.565 191.868L297.773 190.793C298.432 187.083 299.057 183.616 299.646 180.391C309.642 129.152 309.736 76.474 299.924 25.1995C296.906 9.52776 291.08 0.929134 282.583 -0.873807C266.04 -4.13297 257.369 22.3564 255.809 27.6959L202.85 206.742C196.573 228.654 191.509 249.631 199.729 267.764H199.902Z" fill="#65E681"/>
</g>
</g>
<defs>
<clipPath id="clip0_251_52183">
<rect width="583" height="835" fill="white" transform="matrix(-1 0 0 1 583 0)"/>
</clipPath>
</defs>
</svg>
