<svg width="573" height="689" viewBox="0 0 573 689" fill="none" xmlns="http://www.w3.org/2000/svg">
<g clip-path="url(#clip0_329_93)">
<mask id="mask0_329_93" style="mask-type:luminance" maskUnits="userSpaceOnUse" x="0" y="0" width="573" height="689">
<path d="M0 689L573 689L573 0L0 0L0 689Z" fill="white"/>
</mask>
<g mask="url(#mask0_329_93)">
<g opacity="0.13">
<path d="M722.161 -28.1589L721.316 -29.9717L722.162 -28.1592L722.161 -28.1589C694.736 -15.3658 666.091 -4.05587 638.438 6.86228L638.327 6.90604L638.326 6.90641C600.073 21.9865 560.728 37.5528 523.821 57.2179L522.88 55.4528L523.822 57.2174L523.821 57.2179C560.728 37.5528 600.073 21.9865 638.326 6.90641L638.327 6.90604L638.438 6.86228C666.091 -4.05587 694.736 -15.3658 722.161 -28.1589Z" fill="white"/>
<path d="M783.643 -258.042C795.813 -213.917 752.339 -173.781 733.104 -158.607C681.3 -117.656 618.973 -88.1401 558.707 -59.6044C467.004 -16.1775 372.242 28.6953 316.914 114.003C268.252 189.008 253.872 288.708 272.891 418.773C273.523 423.083 274.171 427.387 274.836 431.686L275.085 433.348C279.807 464.211 284.695 496.104 280.738 527.315C277.646 551.513 267.072 580.315 246.507 599.593C240.124 605.63 232.788 610.572 224.795 614.219C188.502 630.622 147.156 617.077 107.156 603.981C67.1565 590.885 25.8435 577.39 -10 594.408V598.015C24.9125 580.498 64.4301 593.029 106.192 606.773C146.757 620.069 188.685 633.78 226.025 616.894C262.301 600.491 279.607 560.072 283.714 527.614C287.737 496.037 282.816 463.895 278.061 432.883C277.308 428.03 276.582 423.188 275.883 418.357C256.964 289.074 271.212 190.055 319.441 115.665C374.303 31.0387 464.477 -11.6404 559.888 -56.8456C620.336 -85.4644 682.813 -115.014 734.932 -156.23C754.6 -171.853 799.171 -213.003 786.47 -258.84C785.657 -261.624 784.657 -264.35 783.477 -267H780.152C781.561 -264.115 782.729 -261.119 783.643 -258.042Z" fill="#20ACA3"/>
<path d="M1173.24 -332.062C1187.3 -281.047 1137.05 -234.643 1114.82 -217.1C1054.95 -169.755 982.906 -135.629 913.25 -102.637C807.258 -52.4291 514.499 -47.4999 398.999 103C310.52 218.291 300.916 300.066 322.898 450.441C323.628 455.424 324.378 460.401 325.146 465.371L325.435 467.292C330.892 502.974 336.541 539.847 331.968 575.933C328.394 603.91 316.173 637.209 292.403 659.498C285.026 666.477 276.547 672.191 267.308 676.407C225.36 695.372 177.572 679.712 131.339 664.571C85.1065 649.429 37.3563 633.827 -4.07227 653.503V657.673C36.2802 637.42 81.9553 651.908 130.225 667.799C177.111 683.171 225.572 699.023 268.73 679.501C310.658 660.536 330.661 613.805 335.407 576.279C340.057 539.771 334.37 502.609 328.874 466.754C328.003 461.144 327.164 455.546 326.357 449.961C304.49 300.489 310.314 225.329 395.499 111.5C518.834 -53.3073 804.337 -47.1835 914.614 -99.4477C984.482 -132.536 1056.69 -166.7 1116.93 -214.352C1139.67 -232.414 1191.18 -279.99 1176.5 -332.984C1175.56 -336.203 1174.41 -339.355 1173.04 -342.419H1169.2C1170.83 -339.084 1172.18 -335.62 1173.24 -332.062Z" fill="#20ACA3"/>
<path d="M286.357 -256.38C271.012 -244.181 263.348 -225.568 256.033 -207.519C249.383 -191.265 242.65 -174.479 230.148 -162.646C230.062 -162.583 229.984 -162.51 229.915 -162.43C209.333 -143.135 180.539 -141.589 150.115 -139.96C121.753 -138.431 92.4593 -136.836 70.6805 -119.502C48.9018 -102.167 10.9636 -161.167 3.66524 -134.343C-0.125254 -120.399 -4.06536 -106.007 -9.9506 -93.0762C-17.1435 -77.6446 -27.4506 -63.8666 -40.2246 -52.6076V-48.5856C-26.216 -60.4266 -14.95 -75.1707 -7.20744 -91.7964C-1.20582 -104.96 2.76748 -119.468 6.5746 -133.479C14.1057 -161.05 51.4953 -100.389 72.5093 -117.108C93.5233 -133.828 122.385 -135.39 150.231 -136.886C179.907 -138.548 210.613 -140.21 231.993 -160.153C232.067 -160.235 232.144 -160.312 232.226 -160.386C245.193 -172.651 252.176 -189.736 258.826 -206.256C266.357 -224.836 273.472 -242.27 288.252 -253.937C314.586 -274.562 353.09 -266.352 379.872 -258.375L382.366 -257.643C413.023 -248.469 441.983 -239.81 473.72 -249.998C492.557 -256.031 507.652 -255.549 516.231 -248.669C523.296 -242.952 526.289 -232.88 525.125 -218.754L524.875 -216.211C523.695 -208.011 521.838 -199.923 519.323 -192.029C517.81 -186.744 516.247 -181.376 515.1 -175.975C512.49 -163.676 511.393 -146.342 520.952 -133.545C523.488 -130.37 526.304 -127.427 529.364 -124.753C533.271 -121.164 536.945 -117.757 539.339 -113.319C540.937 -110.201 541.819 -106.767 541.923 -103.265C542.026 -99.7635 541.348 -96.2829 539.938 -93.0761C535.715 -82.5892 525.258 -73.1327 513.953 -69.5595C501.734 -65.6539 489.132 -65.8201 475.715 -65.9863C468.567 -66.0694 461.202 -66.1525 454.103 -65.5542C407.37 -61.6319 369.033 -29.7391 340.82 -2.3999C238.078 97.3174 188.17 216.978 203.914 326.201C206.274 342.572 210.148 358.892 213.889 374.681L214.005 375.146C217.33 389.04 220.655 403.399 223.016 417.675C229.067 454.737 226.224 484.37 214.337 508.285C209.817 517.267 203.738 525.376 196.383 532.234C181.586 546.045 161.636 555.086 140.639 551.762C126.923 549.635 114.987 542.92 102.401 535.807C92.742 530.389 82.767 524.772 71.9773 521.498C58.9477 517.752 45.1753 517.406 31.9738 520.493C18.7724 523.58 6.58226 529.997 -3.43364 539.131L-4.33134 539.995C-6.39284 541.99 -8.10523 544.25 -9.95061 546.427V551.081C-7.57168 547.971 -4.99496 545.018 -2.23656 542.239L-1.37205 541.408C8.25434 532.626 19.9705 526.456 32.6594 523.485C45.3484 520.515 58.5869 520.843 71.1128 524.439C81.5866 527.63 91.412 533.148 100.922 538.516C113.258 545.447 126.009 552.61 140.24 554.803C173.49 559.939 203.997 535.957 217.081 509.615C229.25 485.118 232.176 454.887 226.025 417.177C223.664 402.651 220.206 388.076 216.864 373.966C213.14 358.227 209.284 341.973 206.89 325.769C191.279 217.526 240.871 98.7135 342.932 -0.222717C370.745 -27.1298 408.534 -58.6571 454.319 -62.4796C461.318 -63.0613 468.567 -62.9782 475.582 -62.9117C488.733 -62.7455 502.182 -62.5793 514.834 -66.6178C520.997 -68.6273 526.666 -71.9167 531.468 -76.2703C536.27 -80.6239 540.097 -85.9433 542.697 -91.8795C544.316 -95.5008 545.091 -99.442 544.964 -103.407C544.837 -107.371 543.812 -111.254 541.966 -114.765C539.339 -119.618 535.316 -123.357 531.376 -126.98C528.453 -129.501 525.765 -132.283 523.346 -135.29C514.435 -147.206 515.532 -163.543 518.009 -175.293C519.14 -180.529 520.653 -185.83 522.132 -190.949C524.877 -199.483 526.836 -208.251 527.984 -217.142C529.53 -233.063 526.205 -244.464 518.092 -251.012L517.228 -251.677C505.175 -260.552 486.405 -257.228 472.773 -252.874C441.933 -242.902 413.405 -251.494 383.231 -260.502L380.704 -261.266C373.904 -263.294 366.356 -265.338 358.41 -266.934H307.803C300.031 -264.858 292.743 -261.272 286.357 -256.38Z" fill="#35CF78"/>
<path d="M3.43291 459.441C6.45183 456.493 9.99204 454.132 13.8734 452.477C27.7885 446.793 41.953 453.308 56.9487 460.205C70.3983 466.404 84.3135 472.803 98.5112 470.177C117.663 466.454 129.301 447.541 132.26 430.44C134.97 415 132.526 399.228 130.149 383.905L129.051 376.692C115.732 286.167 131.767 193.756 174.807 113.004C217.847 32.2523 285.629 -32.5956 368.218 -72.0358L375.118 -75.26C387.985 -81.2763 401.269 -87.492 412.241 -96.8654C423.679 -106.837 435.101 -123.989 432.042 -142.353C430.414 -150.722 425.658 -158.157 418.742 -163.144C417.628 -163.972 416.461 -164.727 415.25 -165.405C411.962 -167.401 408.261 -168.621 404.429 -168.972C400.598 -169.324 396.736 -168.797 393.139 -167.432C389.1 -165.593 385.321 -163.23 381.901 -160.402C376.531 -156.397 371.51 -152.641 365.459 -152.824C358.592 -153.04 353.489 -158.208 348.102 -163.659C345.607 -166.326 342.917 -168.803 340.056 -171.072C336.23 -173.95 331.843 -175.993 327.178 -177.069C322.513 -178.146 317.674 -178.231 312.974 -177.321C296.199 -174.545 277.512 -161.383 265.376 -143.733C262.051 -138.83 258.726 -133.545 255.551 -128.443L254.986 -127.529C242.999 -108.15 230.613 -88.1235 209.815 -80.4453C198.012 -76.091 185.46 -76.44 172.177 -76.8057C158.893 -77.1713 145.311 -77.5702 132.842 -72.7505C112.709 -65.0058 73.434 -245.71 63.9411 -213.884C62.2786 -208.482 60.8821 -203.065 59.3194 -197.065C54.3319 -178.451 49.3443 -159.189 38.0061 -143.6C20.9322 -120.1 -5.83394 -109.264 -34.3125 -98.1452V-94.9044C-6.24956 -105.873 22.6779 -117.291 40.4999 -141.838C52.1374 -157.859 57.3078 -177.387 62.2786 -196.284C63.7416 -201.801 65.2379 -207.502 66.9004 -213.02C76.1106 -243.882 114.737 -62.5294 133.972 -69.9418C145.876 -74.5288 158.611 -74.1797 172.077 -73.7975C185.144 -73.4319 198.56 -73.0497 210.929 -77.6201C232.642 -85.6307 245.343 -106.106 257.596 -125.933L257.895 -126.398C261.137 -131.634 264.545 -137.018 267.87 -142.021C279.391 -158.79 297.795 -171.77 313.489 -174.329C317.783 -175.123 322.193 -175.031 326.45 -174.059C330.707 -173.087 334.72 -171.256 338.243 -168.679C340.931 -166.544 343.459 -164.217 345.808 -161.715L345.957 -161.565C348.469 -158.864 351.193 -156.369 354.104 -154.103C357.318 -151.516 361.27 -150.015 365.392 -149.815C372.524 -149.599 378.21 -153.871 383.68 -157.992C386.914 -160.647 390.473 -162.88 394.27 -164.64C397.453 -165.823 400.864 -166.268 404.244 -165.943C407.625 -165.617 410.888 -164.53 413.787 -162.762C417.692 -160.594 421.075 -157.597 423.697 -153.982C426.319 -150.367 428.118 -146.222 428.966 -141.838C431.842 -124.72 421.202 -108.599 410.18 -99.1424C399.59 -90.0348 386.522 -83.9188 373.887 -78.0023C371.427 -76.8721 369.133 -75.7919 366.855 -74.6784C283.687 -34.9684 215.428 30.3259 172.081 111.636C128.733 192.947 112.575 285.999 125.976 377.157C126.342 379.567 126.724 381.994 127.09 384.403C129.417 399.361 131.828 414.9 129.201 429.908C127.311 440.765 122.08 450.764 114.239 458.51C109.708 462.887 104.021 465.879 97.8462 467.135C84.5462 469.662 71.1132 463.463 58.0958 457.48C43.1334 450.599 27.7387 443.502 12.6265 449.685C2.93418 453.657 -3.73241 462.183 -10.1164 470.509V475.312C-9.43478 474.448 -8.73654 473.65 -8.07154 472.736C-4.60297 468 -0.75553 463.554 3.43291 459.441Z" fill="#65E681"/>
<path d="M-76.5671 349.441C-73.5482 346.493 -70.008 344.132 -66.1266 342.477C-52.2115 336.793 -38.047 343.308 -23.0513 350.205C-9.6017 356.404 4.3135 362.803 18.5112 360.177C37.6629 356.454 49.3009 337.541 52.2599 320.44C54.9699 305 52.5259 289.228 50.1489 273.905L49.0509 266.692C35.7319 176.167 51.7669 83.7561 94.8069 3.00412C137.847 -77.7477 205.629 -142.596 288.218 -182.036L295.118 -185.26C307.985 -191.276 321.269 -197.492 332.241 -206.865C343.679 -216.837 355.101 -233.989 352.042 -252.353C350.414 -260.722 345.658 -268.157 338.742 -273.144C337.628 -273.972 336.461 -274.727 335.25 -275.405C331.962 -277.401 328.261 -278.621 324.429 -278.972C320.598 -279.324 316.736 -278.797 313.139 -277.432C309.1 -275.593 305.321 -273.23 301.901 -270.402C296.531 -266.397 291.51 -262.641 285.459 -262.824C278.592 -263.04 273.489 -268.208 268.102 -273.659C265.607 -276.326 262.917 -278.803 260.056 -281.072C256.23 -283.95 251.843 -285.993 247.178 -287.069C242.513 -288.146 237.674 -288.231 232.974 -287.321C216.199 -284.545 197.512 -271.383 185.376 -253.733C182.051 -248.83 178.726 -243.545 175.551 -238.443L174.986 -237.529C162.999 -218.15 150.613 -198.123 129.815 -190.445C118.012 -186.091 105.46 -186.44 92.1769 -186.806C78.8929 -187.171 65.3109 -187.57 52.8419 -182.75C32.7089 -175.006 -6.566 -355.71 -16.0589 -323.884C-17.7214 -318.482 -19.1179 -313.065 -20.6806 -307.065C-25.6681 -288.451 -30.6557 -269.189 -41.9939 -253.6C-59.0678 -230.1 -85.8339 -219.264 -114.312 -208.145V-204.904C-86.2496 -215.873 -57.3221 -227.291 -39.5001 -251.838C-27.8626 -267.859 -22.6922 -287.387 -17.7214 -306.284C-16.2584 -311.801 -14.7621 -317.502 -13.0996 -323.02C-3.8894 -353.882 34.7369 -172.529 53.9719 -179.942C65.8759 -184.529 78.6109 -184.18 92.0769 -183.797C105.144 -183.432 118.56 -183.05 130.929 -187.62C152.642 -195.631 165.343 -216.106 177.596 -235.933L177.895 -236.398C181.137 -241.634 184.545 -247.018 187.87 -252.021C199.391 -268.79 217.795 -281.77 233.489 -284.329C237.783 -285.123 242.193 -285.031 246.45 -284.059C250.707 -283.087 254.72 -281.256 258.243 -278.679C260.931 -276.544 263.459 -274.217 265.808 -271.715L265.957 -271.565C268.469 -268.864 271.193 -266.369 274.104 -264.103C277.318 -261.516 281.27 -260.015 285.392 -259.815C292.524 -259.599 298.21 -263.871 303.68 -267.992C306.914 -270.647 310.473 -272.88 314.27 -274.64C317.453 -275.823 320.864 -276.268 324.244 -275.943C327.625 -275.617 330.888 -274.53 333.787 -272.762C337.692 -270.594 341.075 -267.597 343.697 -263.982C346.319 -260.367 348.118 -256.222 348.966 -251.838C351.842 -234.72 341.202 -218.599 330.18 -209.142C319.59 -200.035 306.522 -193.919 293.887 -188.002C291.427 -186.872 289.133 -185.792 286.855 -184.678C203.687 -144.968 135.428 -79.6741 92.0809 1.63614C48.7329 82.9471 32.5749 175.999 45.9759 267.157C46.3419 269.567 46.7239 271.994 47.0899 274.403C49.4169 289.361 51.8279 304.9 49.2009 319.908C47.3109 330.765 42.0799 340.764 34.2389 348.51C29.7079 352.887 24.0209 355.879 17.8462 357.135C4.54619 359.662 -8.8868 353.463 -21.9042 347.48C-36.8666 340.599 -52.2613 333.502 -67.3735 339.685C-77.0658 343.657 -83.7324 352.183 -90.1164 360.509V365.312C-89.4348 364.448 -88.7365 363.65 -88.0715 362.736C-84.603 358 -80.7555 353.554 -76.5671 349.441Z" fill="#60E77D"/>
<path d="M-96.5671 59.4412C-93.5482 56.4932 -90.008 54.1321 -86.1266 52.4771C-72.2115 46.7931 -58.047 53.3081 -43.0513 60.2051C-29.6017 66.4041 -15.6865 72.8031 -1.4888 70.1771C17.6629 66.4541 29.3009 47.5411 32.2599 30.4401C34.9699 15.0001 32.5259 -0.771849 30.1489 -16.0948L29.0509 -23.3079C15.7319 -113.833 31.7669 -206.244 74.8069 -286.996C117.847 -367.748 185.629 -432.596 268.218 -472.036L275.118 -475.26C287.985 -481.276 301.269 -487.492 312.241 -496.865C323.679 -506.837 335.101 -523.989 332.042 -542.353C330.414 -550.722 325.658 -558.157 318.742 -563.144C317.628 -563.972 316.461 -564.727 315.25 -565.405C311.962 -567.401 308.261 -568.621 304.429 -568.972C300.598 -569.324 296.736 -568.797 293.139 -567.432C289.1 -565.593 285.321 -563.23 281.901 -560.402C276.531 -556.397 271.51 -552.641 265.459 -552.824C258.592 -553.04 253.489 -558.208 248.102 -563.659C245.607 -566.326 242.917 -568.803 240.056 -571.072C236.23 -573.95 231.843 -575.993 227.178 -577.069C222.513 -578.146 217.674 -578.231 212.974 -577.321C196.199 -574.545 177.512 -561.383 165.376 -543.733C162.051 -538.83 158.726 -533.545 155.551 -528.443L154.986 -527.529C142.999 -508.15 130.613 -488.123 109.815 -480.445C98.0119 -476.091 85.4599 -476.44 72.1769 -476.806C58.8929 -477.171 45.3109 -477.57 32.8419 -472.75C12.7089 -465.006 -26.566 -645.71 -36.0589 -613.884C-37.7214 -608.482 -39.1179 -603.065 -40.6806 -597.065C-45.6681 -578.451 -50.6557 -559.189 -61.9939 -543.6C-79.0678 -520.1 -105.834 -509.264 -134.312 -498.145V-494.904C-106.25 -505.873 -77.3221 -517.291 -59.5001 -541.838C-47.8626 -557.859 -42.6922 -577.387 -37.7214 -596.284C-36.2584 -601.801 -34.7621 -607.502 -33.0996 -613.02C-23.8894 -643.882 14.7369 -462.529 33.9719 -469.942C45.8759 -474.529 58.6109 -474.18 72.0769 -473.797C85.1439 -473.432 98.5599 -473.05 110.929 -477.62C132.642 -485.631 145.343 -506.106 157.596 -525.933L157.895 -526.398C161.137 -531.634 164.545 -537.018 167.87 -542.021C179.391 -558.79 197.795 -571.77 213.489 -574.329C217.783 -575.123 222.193 -575.031 226.45 -574.059C230.707 -573.087 234.72 -571.256 238.243 -568.679C240.931 -566.544 243.459 -564.217 245.808 -561.715L245.957 -561.565C248.469 -558.864 251.193 -556.369 254.104 -554.103C257.318 -551.516 261.27 -550.015 265.392 -549.815C272.524 -549.599 278.21 -553.871 283.68 -557.992C286.914 -560.647 290.473 -562.88 294.27 -564.64C297.453 -565.823 300.864 -566.268 304.244 -565.943C307.625 -565.617 310.888 -564.53 313.787 -562.762C317.692 -560.594 321.075 -557.597 323.697 -553.982C326.319 -550.367 328.118 -546.222 328.966 -541.838C331.842 -524.72 321.202 -508.599 310.18 -499.142C299.59 -490.035 286.522 -483.919 273.887 -478.002C271.427 -476.872 269.133 -475.792 266.855 -474.678C183.687 -434.968 115.428 -369.674 72.0809 -288.364C28.7329 -207.053 12.5749 -114.001 25.9759 -22.8428C26.3419 -20.4328 26.7239 -18.0059 27.0899 -15.5969C29.4169 -0.638863 31.8279 14.9001 29.2009 29.9081C27.3109 40.7651 22.0799 50.7641 14.2389 58.5101C9.70789 62.8871 4.02089 65.8791 -2.15381 67.1351C-15.4538 69.6621 -28.8868 63.4632 -41.9042 57.4802C-56.8666 50.5992 -72.2613 43.5021 -87.3735 49.6851C-97.0658 53.6571 -103.732 62.1832 -110.116 70.5092V75.3121C-109.435 74.4481 -108.737 73.6501 -108.072 72.7361C-104.603 68.0001 -100.756 63.5542 -96.5671 59.4412Z" fill="#60E77D"/>
</g>
</g>
</g>
<defs>
<clipPath id="clip0_329_93">
<rect width="573" height="689" fill="white"/>
</clipPath>
</defs>
</svg>
