<svg width="26" height="22" viewBox="0 0 26 22" fill="none" xmlns="http://www.w3.org/2000/svg">
<path d="M6.43664 1.92461L6.43672 1.92459L6.43527 1.9199C6.1974 1.14748 5.79052 0.706732 5.37349 0.462065C4.96022 0.219608 4.54994 0.177148 4.31192 0.177148H1.21731C0.747046 0.177148 0.35 0.536808 0.35 0.999652C0.35 1.46259 0.74787 1.82216 1.21731 1.82216H4.31119H4.31209C4.35115 1.82215 4.4103 1.82215 4.48303 1.87553C4.5602 1.93218 4.6714 2.06364 4.7676 2.37425L8.25939 14.8004L8.25937 14.8004L8.26008 14.8028C8.36736 15.1615 8.71239 15.4001 9.09437 15.4001H20.8456C21.2053 15.4001 21.5346 15.1889 21.6605 14.8586L21.6613 14.8561L25.0978 5.34021C25.1954 5.08577 25.1544 4.80324 24.9898 4.58417C24.8258 4.366 24.5617 4.23848 24.2833 4.23848H7.06715L6.43664 1.92461ZM23.0511 5.88417L20.2357 13.7558H9.75359L7.55402 5.88417H23.0511ZM18.9183 17.4634C17.8471 17.4634 16.9624 18.2795 16.9624 19.3065C16.9624 20.3336 17.8471 21.1497 18.9183 21.1497C19.9895 21.1497 20.8742 20.3336 20.8742 19.3065C20.8742 18.2795 19.9895 17.4634 18.9183 17.4634ZM10.417 17.4634C9.34585 17.4634 8.46111 18.2795 8.46111 19.3065C8.46111 20.3336 9.34585 21.1497 10.417 21.1497C11.4882 21.1497 12.3729 20.3336 12.3729 19.3065C12.3729 18.2795 11.4882 17.4634 10.417 17.4634Z" fill="#0B89CE" stroke="#0B89CE" stroke-width="0.3"/>
</svg>
