<svg width="795" height="290" viewBox="0 0 795 290" fill="none" xmlns="http://www.w3.org/2000/svg">
<g clip-path="url(#clip0_251_53030)">
<g opacity="0.13">
<path d="M109.73 -1179.81C92.146 -1179.36 73.6261 -1183.45 55.7305 -1187.37C22.5403 -1194.72 -8.70778 -1201.52 -31.4588 -1180.44C-54.2099 -1159.36 -51.1579 -1123.02 -38.3951 -1095.7C-32.0036 -1082.73 -24.7143 -1070.21 -16.5805 -1058.25C-7.10282 -1044.58 1.11562 -1030.07 7.97402 -1014.91C28.7829 -964.951 18.3785 -908.644 8.35552 -854.209C-2.91597 -793.048 -13.5285 -735.319 15.604 -685.287C38.3897 -646.178 80.2503 -623.779 120.724 -602.075C131.648 -596.215 142.954 -590.182 153.775 -583.837C266.212 -517.961 353.471 -396.609 393.077 -250.987C425.331 -132.513 429.25 3.92135 404.904 165.666C401.436 187.752 397.759 210.219 394.083 231.959L393.771 233.762C378.65 323.007 362.905 415.304 375.147 505.451C388.534 605.098 445.655 693.962 535.931 755.609C568.254 777.66 595.305 782.931 616.322 771.142C653.293 750.512 666.784 678.187 663.767 615.708C660.68 551.079 673.547 483.192 703.13 408.196C727.962 345.267 761.707 283.967 794.967 224.435V232.201C727.372 353.38 661.166 478.719 667.616 615.534C670.46 674.477 659.223 751.587 618.195 774.54C595.791 787.057 567.387 781.752 533.78 758.799C442.603 696.389 384.893 606.728 371.367 506.006C359.124 415.165 374.835 322.695 389.991 233.311L390.303 231.508C393.979 209.769 397.794 187.232 401.124 165.181C425.401 3.88668 421.586 -131.923 389.471 -249.877C350.072 -394.737 263.438 -515.256 151.833 -580.613C141.428 -586.68 130.434 -592.575 119.787 -598.261L118.92 -598.746C77.996 -620.624 35.6845 -643.265 12.3092 -683.346C-17.5516 -734.591 -6.28008 -795.718 4.57523 -854.799C14.4941 -908.714 24.7599 -964.431 4.57523 -1013.42C-2.20774 -1028.34 -10.3335 -1042.62 -19.7018 -1056.07C-28.0296 -1068.24 -35.4818 -1080.98 -42.002 -1094.21C-55.2157 -1122.78 -57.8515 -1161.47 -34.0253 -1183.35C-10.1991 -1205.23 23.9622 -1198.19 56.5628 -1191.05C62.1812 -1189.76 67.9036 -1188.52 73.6261 -1187.41C85.4872 -1184.84 97.5934 -1183.57 109.73 -1183.63C136.885 -1184.36 159.324 -1195.83 179.786 -1212.79H185.301C163.312 -1193.99 139.035 -1180.61 109.73 -1179.81Z" fill="#20ACA3"/>
<path d="M791.151 -420.463C759.382 -395.534 726.539 -369.738 680.517 -375.182C651.766 -378.649 623.604 -396.193 594.576 -428.958C588.16 -436.204 581.813 -443.902 576.195 -450.697C560.692 -469.489 544.773 -488.836 525.178 -503.295C501.699 -520.631 463.064 -534.499 431.538 -516.955C396.44 -497.296 389.573 -447.611 400.914 -411.067C409.342 -383.884 425.399 -359.475 440.902 -335.898L441.18 -335.482C447.596 -325.74 454.22 -315.685 460.22 -305.491C499.306 -239.615 520.149 -156.402 520.566 -64.8679C520.947 24.1696 503.051 110.156 485.468 182.516C482.971 192.918 480.404 203.111 477.838 213.374L476.555 218.541C463.514 270.548 450.023 324.325 444.405 378.413C436.463 454.414 445.792 520.013 472.15 573.339C481.202 591.715 496.427 614.043 519.005 618.412C520.011 618.62 521.016 618.759 522.022 618.897C546.542 621.845 567.42 602.116 576.472 582.561C585.524 563.006 587.119 540.955 588.645 519.354L589.166 512.42C595.118 434.307 612.771 357.531 641.535 284.66C642.748 281.609 643.962 278.558 645.211 275.506C679.892 190.942 729.522 112.236 777.555 36.2701C783.104 27.4634 789.07 18.0673 795.104 8.53252V15.4669C790.561 22.6787 786.018 30.0291 781.544 37.1369L780.781 38.3504C732.816 114.282 683.256 192.814 648.748 277.067C617.95 352.26 599.132 431.816 592.98 512.836L592.495 519.77C590.9 541.683 589.27 564.254 579.94 584.364C570.333 605.167 547.964 625.971 521.571 622.885C501.213 620.284 482.867 603.919 468.717 575.176C442.116 521.192 432.648 454.899 440.659 378.17C446.139 323.7 459.665 269.682 472.74 217.674C475.757 205.539 478.774 193.403 481.688 181.546C499.202 109.393 517.063 23.6842 516.681 -64.9026C516.265 -155.743 495.595 -238.262 456.856 -303.619C450.648 -314.021 443.503 -324.977 437.781 -333.679C422.001 -357.638 405.77 -382.22 397.203 -409.958C385.412 -448.097 392.729 -499.689 429.596 -520.319C462.786 -538.868 503.051 -524.41 527.432 -506.45C547.444 -491.68 563.501 -472.194 579.073 -453.332C584.726 -446.398 591.038 -438.84 597.42 -431.593C623.674 -402.018 648.991 -385.098 674.586 -380.071C676.702 -379.654 678.817 -379.342 680.933 -379.065C725.394 -373.83 756.192 -397.996 788.792 -423.549L794.965 -428.334V-423.41C793.717 -422.405 792.399 -421.434 791.151 -420.463Z" fill="#35CF78"/>
<path d="M775.199 -324.041L772.286 -324.7C754.599 -328.167 737.05 -323.07 718.564 -317.765C706.067 -313.694 693.175 -310.951 680.103 -309.583C631.167 -306.289 592.185 -341.134 554.521 -374.87L553.827 -375.494C546.718 -381.874 539.33 -388.461 532.117 -394.529C521.469 -403.544 509.782 -412.142 496.395 -414.777L493.585 -415.228C479.713 -416.996 463.135 -409.542 460.083 -395.708C457.482 -384.093 464.453 -372.616 471.806 -361.868C476.349 -355.176 480.892 -348.623 485.366 -342.14C521.539 -289.75 555.665 -240.343 571.029 -174.605C587.439 -104.106 589.889 -31.0784 578.243 40.3612L577.376 45.4926C573.908 66.7119 570.058 88.6245 578.104 107.902C580.838 113.949 584.929 119.284 590.06 123.493C595.19 127.702 601.222 130.672 607.688 132.173H608.381C612.34 133.129 616.472 133.112 620.423 132.121C624.373 131.131 628.024 129.197 631.063 126.486C637.999 120.107 640.67 110.433 643.375 101.072C649.34 80.2686 656.45 59.4655 664.496 38.9744C687.767 -20.2181 719.154 -75.8905 757.755 -126.446C761.223 -131.126 765.003 -135.772 768.645 -140.314C777.696 -151.825 786.783 -163.51 794.933 -175.68V-168.988C787.546 -158.344 779.569 -148.185 771.662 -137.957C768.02 -133.276 764.379 -128.63 760.807 -124.088C709.25 -56.3618 670.756 20.3687 647.294 102.181C644.381 112.34 641.398 122.707 633.768 129.919C630.304 133.053 626.128 135.296 621.603 136.456C617.077 137.616 612.337 137.657 607.792 136.576H606.994C599.911 134.91 593.308 131.631 587.701 126.994C582.094 122.357 577.635 116.488 574.671 109.844C566.209 89.4913 570.024 66.9893 573.7 45.25L574.567 40.1185C586.138 -30.8477 583.711 -103.391 567.422 -173.426C552.197 -238.471 519.839 -285.312 482.383 -339.574L481.135 -341.377C477.042 -347.294 472.915 -353.304 468.754 -359.406C461.262 -370.363 453.528 -383.122 456.442 -396.193C460.083 -412.628 478.881 -420.672 494.21 -418.695C509.539 -416.719 522.857 -407.15 534.683 -397.164C542.174 -390.854 549.804 -384.023 557.191 -377.401C594.266 -344.22 632.589 -309.895 679.964 -313.05C692.755 -314.419 705.368 -317.127 717.593 -321.128C735.766 -326.364 754.529 -331.807 773.084 -328.063L776.101 -327.404C782.866 -325.613 789.247 -322.606 794.933 -318.528V-314.021C789.14 -318.722 782.414 -322.138 775.199 -324.041Z" fill="#65E681"/>
<path d="M542.729 454.206C541.931 456.875 541.099 459.406 540.162 461.695C533.226 479.031 522.822 487.699 511.515 485.48C501.458 483.469 494.66 473.691 491.296 456.355C481.382 404.601 481.476 351.427 491.574 299.707C492.163 296.656 492.787 293.224 493.446 289.479L493.62 288.578C499.758 254.426 510.059 197.287 543.006 187.024C553.675 183.989 565.071 184.79 575.21 189.288C585.348 193.786 593.589 201.696 598.497 211.641C607.479 230.988 602.277 252.692 595.618 275.125L542.729 454.206ZM595.098 213.236C592.062 207.179 587.664 201.908 582.248 197.835C576.833 193.762 570.547 190.999 563.884 189.763C557.356 188.426 550.598 188.736 544.22 190.664C513.458 200.268 503.435 255.882 497.435 289.132L497.227 290.207C496.568 293.917 495.943 297.384 495.354 300.609C485.358 351.848 485.264 404.526 495.076 455.801C498.094 471.472 503.92 480.071 512.417 481.874C528.96 485.133 537.631 458.644 539.191 453.304L592.15 274.258C598.427 252.346 603.491 231.369 595.271 213.236H595.098Z" fill="#65E681"/>
</g>
</g>
<defs>
<clipPath id="clip0_251_53030">
<rect width="795" height="338" fill="white" transform="matrix(1 0 0 -1 0 312)"/>
</clipPath>
</defs>
</svg>
