<svg width="795" height="656" viewBox="0 0 795 656" fill="none" xmlns="http://www.w3.org/2000/svg">
<g clip-path="url(#clip0_251_52412)">
<g opacity="0.13">
<path d="M685.27 1607.81C702.854 1607.36 721.374 1611.45 739.27 1615.37C772.46 1622.72 803.708 1629.52 826.459 1608.44C849.21 1587.36 846.158 1551.02 833.395 1523.7C827.004 1510.73 819.714 1498.21 811.58 1486.25C802.103 1472.58 793.884 1458.07 787.026 1442.91C766.217 1392.95 776.622 1336.64 786.644 1282.21C797.916 1221.05 808.529 1163.32 779.396 1113.29C756.61 1074.18 714.75 1051.78 674.276 1030.07C663.352 1024.22 652.046 1018.18 641.225 1011.84C528.788 945.961 441.529 824.609 401.923 678.987C369.669 560.513 365.75 424.079 390.096 262.334C393.564 240.248 397.241 217.781 400.917 196.041L401.229 194.238C416.35 104.993 432.095 12.696 419.853 -77.451C406.466 -177.098 349.345 -265.962 259.069 -327.609C226.746 -349.66 199.695 -354.931 178.678 -343.142C141.707 -322.512 128.216 -250.187 131.233 -187.708C134.32 -123.079 121.453 -55.1916 91.8699 19.8038C67.0379 82.7333 33.2928 144.033 0.0332642 203.565V195.799C67.6276 74.6201 133.834 -50.719 127.384 -187.534C124.54 -246.477 135.777 -323.587 176.805 -346.54C199.209 -359.057 227.613 -353.752 261.22 -330.799C352.397 -268.389 410.107 -178.728 423.633 -78.0058C435.876 12.8347 420.165 105.305 405.009 194.689L404.697 196.492C401.021 218.231 397.206 240.768 393.876 262.819C369.599 424.113 373.414 559.923 405.529 677.877C444.928 822.737 531.562 943.256 643.167 1008.61C653.572 1014.68 664.566 1020.57 675.213 1026.26L676.08 1026.75C717.004 1048.62 759.315 1071.27 782.691 1111.35C812.552 1162.59 801.28 1223.72 790.425 1282.8C780.506 1336.71 770.24 1392.43 790.425 1441.42C797.208 1456.34 805.334 1470.62 814.702 1484.07C823.03 1496.24 830.482 1508.98 837.002 1522.21C850.216 1550.78 852.851 1589.47 829.025 1611.35C805.199 1633.23 771.038 1626.19 738.437 1619.05C732.819 1617.76 727.096 1616.52 721.374 1615.41C709.513 1612.84 697.407 1611.57 685.27 1611.63C658.115 1612.36 635.676 1623.83 615.214 1640.79H609.699C631.688 1621.99 655.965 1608.61 685.27 1607.81Z" fill="#20ACA3"/>
<path d="M769.735 1512.95C787.319 1512.5 805.839 1516.59 823.734 1520.51C856.925 1527.86 888.173 1534.66 910.924 1513.58C933.675 1492.5 930.623 1456.16 917.86 1428.84C911.468 1415.87 904.179 1403.35 896.045 1391.39C886.568 1377.72 878.349 1363.21 871.491 1348.05C850.682 1298.09 861.086 1241.78 871.109 1187.35C882.381 1126.19 892.993 1068.46 863.861 1018.43C841.075 979.318 799.215 956.92 758.741 935.215C747.817 929.356 736.51 923.323 725.69 916.978C613.252 851.101 525.994 729.75 486.387 584.127C454.134 465.653 450.215 329.219 474.561 167.475C478.029 145.389 481.705 122.921 485.382 101.182L485.694 99.379C500.815 10.1334 516.56 -82.1634 504.318 -172.31C490.931 -271.958 433.81 -360.822 343.534 -422.468C311.211 -444.52 284.16 -449.79 263.143 -438.002C226.172 -417.372 212.681 -345.046 215.698 -282.567C218.785 -217.939 205.918 -150.051 176.335 -75.0556C152.5 -53 87.2596 -201.032 54 -141.5V-149.267C121.594 -270.445 218.299 -145.578 211.849 -282.394C209.005 -341.336 220.241 -418.447 261.27 -441.399C283.674 -453.916 312.078 -448.611 345.685 -425.658C436.862 -363.249 494.572 -273.587 508.098 -172.865C520.341 -82.0247 504.63 10.4454 489.474 99.8297L489.162 101.633C485.486 123.372 481.671 145.909 478.341 167.96C454.064 329.254 457.879 465.064 489.994 583.018C529.392 727.877 616.027 848.397 727.632 913.753C738.036 919.821 749.03 925.715 759.678 931.401L760.545 931.887C801.469 953.765 843.78 976.406 867.156 1016.49C897.016 1067.73 885.745 1128.86 874.89 1187.94C864.971 1241.85 854.705 1297.57 874.89 1346.56C881.673 1361.48 889.798 1375.76 899.167 1389.21C907.494 1401.38 914.947 1414.12 921.467 1427.35C934.681 1455.92 937.316 1494.61 913.49 1516.49C889.664 1538.37 855.503 1531.33 822.902 1524.19C817.284 1522.9 811.561 1521.66 805.839 1520.55C793.978 1517.98 781.871 1516.71 769.735 1516.77C742.58 1517.5 720.141 1528.97 699.679 1545.93H694.164C716.152 1527.13 740.429 1513.75 769.735 1512.95Z" fill="#20ACA3"/>
<path d="M3.8494 848.463C35.6176 823.534 68.4611 797.738 114.483 803.182C143.234 806.649 171.396 824.193 200.424 856.958C206.84 864.204 213.187 871.901 218.805 878.697C234.308 897.49 250.227 916.836 269.822 931.295C293.301 948.631 331.936 962.499 363.462 944.955C398.56 925.296 405.427 875.611 394.086 839.067C385.658 811.884 369.601 787.475 354.098 763.898L353.82 763.482C347.404 753.74 340.78 743.685 334.78 733.491C295.694 667.615 274.851 584.402 274.434 492.868C274.053 403.83 291.949 317.844 309.532 245.484C312.029 235.082 314.596 224.889 317.162 214.626L318.445 209.46C331.486 157.452 344.977 103.675 350.595 49.5872C358.537 -26.4137 349.208 -92.0131 322.85 -145.339C313.798 -163.715 298.573 -186.043 275.995 -190.412C274.989 -190.62 273.984 -190.759 272.978 -190.897C248.458 -193.845 227.58 -174.116 218.528 -154.561C209.476 -135.006 207.881 -112.955 206.355 -91.3543L205.834 -84.4199C199.882 -6.30701 182.229 70.4692 153.465 143.34C152.252 146.391 151.038 149.442 149.789 152.494C115.108 237.058 65.4785 315.764 17.4446 391.73C11.8955 400.537 5.93033 409.933 -0.104248 419.467V412.533C4.43903 405.321 8.98233 397.971 13.4562 390.863L14.2192 389.65C62.1837 313.718 111.744 235.186 146.252 150.933C177.05 75.7396 195.868 -3.81575 202.02 -84.836L202.505 -91.7703C204.1 -113.683 205.73 -136.254 215.06 -156.364C224.667 -177.167 247.036 -197.971 273.429 -194.885C293.787 -192.284 312.133 -175.919 326.283 -147.176C352.884 -93.1919 362.352 -26.8991 354.341 49.8299C348.861 104.299 335.335 158.318 322.26 210.326C319.243 222.461 316.226 234.597 313.312 246.454C295.798 318.607 277.937 404.316 278.319 492.903C278.735 583.743 299.405 666.262 338.144 731.619C344.352 742.021 351.497 752.977 357.219 761.679C372.999 785.638 389.23 810.22 397.797 837.958C409.588 876.097 402.271 927.689 365.404 948.319C332.214 966.868 291.949 952.41 267.568 934.45C247.556 919.68 231.499 900.194 215.927 881.332C210.274 874.398 203.962 866.839 197.58 859.593C171.326 830.018 146.009 813.098 120.414 808.07C118.298 807.654 116.183 807.342 114.067 807.065C69.6056 801.83 38.8084 825.996 6.20782 851.549L0.0345154 856.334V851.41C1.28305 850.405 2.60086 849.434 3.8494 848.463Z" fill="#35CF78"/>
<path d="M19.8006 752.041L22.7139 752.7C40.4014 756.167 57.9503 751.07 76.4356 745.765C88.9328 741.694 101.825 738.951 114.897 737.583C163.833 734.289 202.815 769.134 240.479 802.87L241.173 803.494C248.282 809.874 255.67 816.461 262.883 822.529C273.531 831.544 285.218 840.142 298.605 842.777L301.415 843.228C315.287 844.996 331.865 837.542 334.917 823.708C337.518 812.093 330.547 800.616 323.194 789.868C318.651 783.176 314.108 776.623 309.634 770.14C273.461 717.75 239.335 668.343 223.971 602.605C207.561 532.106 205.111 459.078 216.757 387.639L217.624 382.507C221.092 361.288 224.942 339.375 216.896 320.098C214.162 314.051 210.071 308.716 204.94 304.507C199.81 300.298 193.778 297.328 187.312 295.827H186.619C182.66 294.871 178.528 294.888 174.577 295.879C170.627 296.869 166.976 298.803 163.937 301.514C157.001 307.893 154.33 317.567 151.625 326.928C145.66 347.731 138.55 368.535 130.504 389.026C107.233 448.218 75.8462 503.891 37.2454 554.446C33.7773 559.126 29.997 563.772 26.3555 568.314C17.3036 579.825 8.21701 591.51 0.0668335 603.68V596.988C7.45401 586.344 15.4308 576.185 23.3382 565.957C26.9798 561.276 30.6212 556.63 34.1934 552.088C85.7503 484.362 124.244 407.631 147.706 325.819C150.619 315.66 153.602 305.293 161.232 298.081C164.696 294.947 168.872 292.704 173.397 291.544C177.923 290.384 182.663 290.343 187.208 291.424H188.006C195.089 293.09 201.692 296.369 207.299 301.006C212.906 305.643 217.365 311.512 220.329 318.156C228.791 338.509 224.976 361.011 221.3 382.75L220.433 387.882C208.862 458.848 211.289 531.391 227.578 601.426C242.803 666.471 275.161 713.312 312.617 767.574L313.865 769.377C317.958 775.294 322.085 781.304 326.246 787.406C333.738 798.363 341.472 811.122 338.558 824.193C334.917 840.628 316.119 848.672 300.79 846.695C285.461 844.719 272.143 835.15 260.317 825.164C252.826 818.854 245.196 812.023 237.809 805.401C200.734 772.22 162.411 737.895 115.036 741.05C102.245 742.419 89.6325 745.127 77.4067 749.128C59.2336 754.364 40.4709 759.807 21.9163 756.063L18.8989 755.404C12.1344 753.613 5.75284 750.606 0.0668335 746.528V742.021C5.85965 746.722 12.5864 750.138 19.8006 752.041Z" fill="#65E681"/>
<path d="M252.271 -26.2056C253.069 -28.8754 253.901 -31.4064 254.838 -33.6947C261.774 -51.0307 272.178 -59.6987 283.485 -57.4797C293.542 -55.4687 300.34 -45.6912 303.704 -28.3553C313.618 23.3993 313.524 76.5734 303.426 128.293C302.837 131.344 302.213 134.776 301.554 138.521L301.38 139.422C295.242 173.574 284.941 230.714 251.994 240.976C241.325 244.011 229.929 243.21 219.79 238.712C209.652 234.214 201.411 226.304 196.503 216.359C187.521 197.012 192.723 175.308 199.382 152.875L252.271 -26.2056ZM199.902 214.764C202.938 220.821 207.336 226.092 212.752 230.165C218.167 234.238 224.453 237.001 231.116 238.237C237.644 239.574 244.402 239.264 250.78 237.336C281.542 227.732 291.565 172.118 297.565 138.868L297.773 137.793C298.432 134.083 299.057 130.616 299.646 127.391C309.642 76.152 309.736 23.474 299.924 -27.8005C296.906 -43.4722 291.08 -52.0709 282.583 -53.8738C266.04 -57.133 257.369 -30.6436 255.809 -25.3041L202.85 153.742C196.573 175.654 191.509 196.631 199.729 214.764H199.902Z" fill="#65E681"/>
</g>
</g>
<defs>
<clipPath id="clip0_251_52412">
<rect width="795" height="701" fill="white" transform="matrix(-1 0 0 1 795 -23)"/>
</clipPath>
</defs>
</svg>
