<svg width="15" height="14" viewBox="0 0 15 14" fill="none" xmlns="http://www.w3.org/2000/svg">
<path fill-rule="evenodd" clip-rule="evenodd" d="M9.6263 5.9374C10.1602 5.93731 10.6799 5.76493 11.1081 5.4459C11.5362 5.12686 11.85 4.67819 12.0028 4.16656H13.8763C14.0642 4.16656 14.2443 4.09194 14.3772 3.9591C14.51 3.82626 14.5846 3.64609 14.5846 3.45823C14.5846 3.27037 14.51 3.0902 14.3772 2.95736C14.2443 2.82453 14.0642 2.7499 13.8763 2.7499H12.0028C11.8497 2.23854 11.5358 1.79018 11.1077 1.47141C10.6796 1.15264 10.1601 0.980469 9.6263 0.980469C9.09254 0.980469 8.57301 1.15264 8.14488 1.47141C7.71675 1.79018 7.40287 2.23854 7.24984 2.7499H1.1263C0.93844 2.7499 0.758273 2.82453 0.625435 2.95736C0.492596 3.0902 0.417969 3.27037 0.417969 3.45823C0.417969 3.64609 0.492596 3.82626 0.625435 3.9591C0.758273 4.09194 0.93844 4.16656 1.1263 4.16656H7.24984C7.40262 4.67819 7.7164 5.12686 8.14454 5.4459C8.57269 5.76493 9.09236 5.93731 9.6263 5.9374ZM1.1263 9.83323C0.93844 9.83323 0.758273 9.90786 0.625435 10.0407C0.492596 10.1735 0.417969 10.3537 0.417969 10.5416C0.417969 10.7294 0.492596 10.9096 0.625435 11.0424C0.758273 11.1753 0.93844 11.2499 1.1263 11.2499H2.64568C2.7987 11.7613 3.11259 12.2096 3.54071 12.5284C3.96884 12.8472 4.48837 13.0193 5.02214 13.0193C5.5559 13.0193 6.07543 12.8472 6.50356 12.5284C6.93168 12.2096 7.24557 11.7613 7.39859 11.2499H13.8763C14.0642 11.2499 14.2443 11.1753 14.3772 11.0424C14.51 10.9096 14.5846 10.7294 14.5846 10.5416C14.5846 10.3537 14.51 10.1735 14.3772 10.0407C14.2443 9.90786 14.0642 9.83323 13.8763 9.83323H7.39859C7.24557 9.32187 6.93168 8.87351 6.50356 8.55474C6.07543 8.23597 5.5559 8.0638 5.02214 8.0638C4.48837 8.0638 3.96884 8.23597 3.54071 8.55474C3.11259 8.87351 2.7987 9.32187 2.64568 9.83323H1.1263Z" fill="#0A9E4A"/>
</svg>
