<svg width="128" height="33" viewBox="0 0 128 33" fill="none" xmlns="http://www.w3.org/2000/svg">
<rect width="127" height="33" fill="#E1EAF2"/>
<g opacity="0.5">
<path d="M32.9641 26.5916V0H0.0223685L0 0.00824912V2.1212C11.6469 -0.460772 16.2901 1.968 24.4546 7.36528C30.5401 11.3885 29.1638 20.3977 26.2394 26.7413C25.1316 29.1477 25.2423 31.1993 25.9074 33H32.9712V31.5941L32.9641 26.5916Z" fill="#0B89CE"/>
<path d="M16.057 15.328C7.83368 12.7472 6.75528 11.286 0 9.77049V15.7429C5.24953 15.6828 7.20501 16.1129 11.6257 18.2789C14.3335 19.607 13.0915 23.2672 10.7592 27.1054C9.33708 29.4623 8.81201 31.4068 8.36228 32.9977H14.0509C14.6419 30.9962 15.4608 29.0693 16.4915 27.2551C19.264 22.3975 21.1618 16.9307 16.057 15.328Z" fill="#65E681"/>
<path d="M11.6257 18.2789C7.20501 16.1129 5.24953 15.6828 0 15.7429V21.9426C5.77813 18.7726 10.0988 19.3972 5.0282 26.9534C3.38706 29.3987 3.19045 31.5576 2.75015 32.9965H8.35875C8.80848 31.4032 9.33355 29.4611 10.7557 27.1042C13.0915 23.2672 14.3335 19.607 11.6257 18.2789Z" fill="#B2F3C0"/>
<path d="M0 21.9426V32.9965L2.75015 32.9965C3.19045 31.554 3.38706 29.3951 5.0282 26.9499C10.0988 19.3972 5.77813 18.7726 0 21.9426Z" fill="#DFF4DC"/>
<path d="M24.4546 7.36528C16.2901 1.968 11.6469 -0.460772 0 2.1212L0 5.07438C1.21287 4.93247 2.44061 4.98578 3.63665 5.23229C7.18146 6.01713 11.4538 6.93161 14.6761 8.98092C17.8983 11.0302 23.1785 11.8587 24.2569 15.7369C25.3353 19.6152 22.1236 25.2411 20.9039 28.2921C20.2894 29.8312 20.2611 31.6106 20.3848 33L25.9074 33C25.2423 31.1993 25.1316 29.1477 26.2394 26.7413C29.1614 20.3977 30.5401 11.3885 24.4546 7.36528ZM21.874 29.4941C21.9305 29.2667 21.9918 29.0333 22.0742 28.7965C21.9976 29.0333 21.9305 29.2667 21.874 29.4941Z" fill="#20ACA3"/>
<path d="M24.2522 15.737C23.1738 11.8587 17.8948 11.0302 14.6714 8.98093C11.448 6.93161 7.18146 6.01713 3.63665 5.23229C2.44061 4.98578 1.21287 4.93247 0 5.07438V6.82202V9.76813C6.75529 11.2836 7.83368 12.7449 16.057 15.3257C21.1618 16.9284 19.264 22.3964 16.4915 27.2551C15.4609 29.069 14.642 30.9954 14.0509 32.9965H20.3848C20.2611 31.6071 20.2894 29.8276 20.9039 28.2886C22.1236 25.2411 25.3353 19.6164 24.2522 15.737Z" fill="#35CF78"/>
</g>
<g style="mix-blend-mode:color">
<path d="M32.9641 26.5916V0H0.0223685L0 0.00824912V2.1212C11.6469 -0.460772 16.2901 1.968 24.4546 7.36528C30.5401 11.3885 29.1638 20.3977 26.2394 26.7413C25.1316 29.1477 25.2423 31.1993 25.9074 33H32.9712V31.5941L32.9641 26.5916Z" fill="#879BAF"/>
<path d="M16.057 15.328C7.83368 12.7472 6.75528 11.286 0 9.77049V15.7429C5.24953 15.6828 7.20501 16.1129 11.6257 18.2789C14.3335 19.607 13.0915 23.2672 10.7592 27.1054C9.33708 29.4623 8.81201 31.4068 8.36228 32.9977H14.0509C14.6419 30.9962 15.4608 29.0693 16.4915 27.2551C19.264 22.3975 21.1618 16.9307 16.057 15.328Z" fill="#879BAF"/>
<path d="M11.6257 18.2789C7.20501 16.1129 5.24953 15.6828 0 15.7429V21.9426C5.77813 18.7726 10.0988 19.3972 5.0282 26.9534C3.38706 29.3987 3.19045 31.5576 2.75015 32.9965H8.35875C8.80848 31.4032 9.33355 29.4611 10.7557 27.1042C13.0915 23.2672 14.3335 19.607 11.6257 18.2789Z" fill="#879BAF"/>
<path d="M0 21.9426V32.9965L2.75015 32.9965C3.19045 31.554 3.38706 29.3951 5.0282 26.9499C10.0988 19.3972 5.77813 18.7726 0 21.9426Z" fill="#879BAF"/>
<path d="M24.4546 7.36528C16.2901 1.968 11.6469 -0.460772 0 2.1212L0 5.07438C1.21287 4.93247 2.44061 4.98578 3.63665 5.23229C7.18146 6.01713 11.4538 6.93161 14.6761 8.98092C17.8983 11.0302 23.1785 11.8587 24.2569 15.7369C25.3353 19.6152 22.1236 25.2411 20.9039 28.2921C20.2894 29.8312 20.2611 31.6106 20.3848 33L25.9074 33C25.2423 31.1993 25.1316 29.1477 26.2394 26.7413C29.1614 20.3977 30.5401 11.3885 24.4546 7.36528ZM21.874 29.4941C21.9305 29.2667 21.9918 29.0333 22.0742 28.7965C21.9976 29.0333 21.9305 29.2667 21.874 29.4941Z" fill="#879BAF"/>
<path d="M24.2522 15.737C23.1738 11.8587 17.8948 11.0302 14.6714 8.98093C11.448 6.93161 7.18146 6.01713 3.63665 5.23229C2.44061 4.98578 1.21287 4.93247 0 5.07438V6.82202V9.76813C6.75529 11.2836 7.83368 12.7449 16.057 15.3257C21.1618 16.9284 19.264 22.3964 16.4915 27.2551C15.4609 29.069 14.642 30.9954 14.0509 32.9965H20.3848C20.2611 31.6071 20.2894 29.8276 20.9039 28.2886C22.1236 25.2411 25.3353 19.6164 24.2522 15.737Z" fill="#879BAF"/>
</g>
<path d="M71.6368 32.7756H78.4392V6.25675H93.8407V0.224609H71.6368V32.7756Z" fill="#879BAF"/>
<path d="M104.998 0.224609H98.1969V32.7756H104.998V0.224609Z" fill="#879BAF"/>
<path d="M113.213 15.0755L125.857 0.224609H117.899L105.256 15.3381L118.861 32.7756H127.075L113.213 15.0755Z" fill="#879BAF"/>
<path d="M60.3491 12.2122H46.8072V0.224609H40.0059V32.7756H46.8072V19.239H60.3491V32.7756H67.0875V0.224609H60.3491V12.2122Z" fill="#879BAF"/>
</svg>
