<svg width="104" height="27" viewBox="0 0 104 27" fill="none" xmlns="http://www.w3.org/2000/svg">
<path d="M26.978 21.7525V0.00878906H0.0183065L0 0.0155343V1.74327C9.53191 -0.36798 13.3319 1.61801 20.0138 6.03131C24.9942 9.32105 23.8678 16.6878 21.4745 21.8749C20.5678 23.8425 20.6584 25.5202 21.2028 26.9926H26.9838V25.843L26.978 21.7525Z" fill="#0B89CE"/>
<path d="M13.1841 12.4747C6.45404 10.3644 5.52856 9.1685 0 7.9293L0 12.8816C4.29625 12.8324 5.89662 13.1841 9.51456 14.9552C11.7306 16.0412 10.7141 19.0342 8.80542 22.1726C7.64152 24.0998 7.2118 25.6898 6.84374 26.9906H11.4994C11.983 25.3541 12.6484 23.8078 13.4919 22.3243C15.7609 18.3523 17.3618 13.7852 13.1841 12.4747Z" fill="#65E681"/>
<path d="M9.51456 14.9552C5.89662 13.1841 4.29625 12.8324 0 12.8816V17.9511C4.7196 15.4501 8.2649 15.8697 4.11511 22.0483C2.77199 24.0478 2.61108 25.8131 2.25074 26.9897H6.84085C7.28459 25.7101 7.65968 24.0976 8.82359 22.1704C10.7352 19.0329 11.7306 16.0412 9.51456 14.9552Z" fill="#B2F3C0"/>
<path d="M0 17.9511V26.9897L2.25074 26.9897C2.61108 25.8102 2.81218 24.0672 4.1553 22.0678C8.30509 15.892 4.72886 15.359 0 17.9511Z" fill="#DFF4DC"/>
<path d="M20.0138 6.03131C13.3319 1.61801 9.53191 -0.36798 0 1.74327L0 4.15806C0.992618 4.04202 1.99741 4.08561 2.97625 4.28718C5.87735 4.92894 9.37389 5.6767 12.011 7.3524C14.6481 9.02811 18.9694 9.70552 19.852 12.8767C20.7345 16.048 18.1061 20.6482 17.1079 23.143C16.605 24.4014 16.5818 25.8565 16.683 26.9926L21.2028 26.9926C20.6584 25.5202 20.5678 23.8425 21.4745 21.8749C23.8659 16.6878 24.9942 9.32105 20.0138 6.03131ZM17.9018 24.1258C17.9481 23.9399 17.9982 23.7491 18.0656 23.5554C18.003 23.7491 17.9481 23.9399 17.9018 24.1258Z" fill="#20ACA3"/>
<path d="M19.9044 12.7825C19.0218 9.61126 14.6452 9.02811 12.0071 7.3524C9.36907 5.6767 5.87735 4.92894 2.97625 4.28718C1.99741 4.08561 0.992618 4.04202 0 4.15806V5.58708V7.99609C5.52856 9.23529 6.45404 10.4157 13.1841 12.526C17.3618 13.8365 15.6978 18.2203 13.4919 22.3243C12.6485 23.8075 11.9831 25.3534 11.4994 26.9897H16.683C16.5818 25.8536 16.605 24.3985 17.1079 23.1401C18.1061 20.6482 20.7908 15.9547 19.9044 12.7825Z" fill="#35CF78"/>
<path d="M58.6291 26.809H64.1963V5.12481H76.8009V0.192383H58.6291V26.809Z" fill="black"/>
<path d="M85.9323 0.192383H80.366V26.809H85.9323V0.192383Z" fill="black"/>
<path d="M92.6557 12.3358L103.003 0.192383H96.4902L86.143 12.5505L97.2774 26.809H104L92.6557 12.3358Z" fill="black"/>
<path d="M49.3912 9.99452H38.3084V0.192383H32.7422V26.809H38.3084V15.7403H49.3912V26.809H54.9059V0.192383H49.3912V9.99452Z" fill="black"/>
</svg>
