<svg width="25" height="25" viewBox="0 0 25 25" fill="none" xmlns="http://www.w3.org/2000/svg">
<path d="M20.8941 18.5409L17.5334 15.1799C16.8338 14.4804 15.6996 14.4795 14.9992 15.1799L14.0205 16.1587C11.7842 14.7929 9.90534 12.9139 8.53959 10.6774L9.61275 9.6042C10.3113 8.90548 10.3113 7.76856 9.61271 7.06984L6.25202 3.70891C5.55443 3.01136 4.42183 3.00488 3.71578 3.71102L1.60394 5.83945C0.593508 6.68794 0.238099 8.08107 0.698898 9.40142C3.06346 16.1779 8.52051 21.6353 15.2964 24C16.5713 24.4448 17.8804 24.1122 18.7128 23.2546C18.7248 23.2439 18.7365 23.233 18.748 23.2214L20.8941 21.0752C21.5927 20.3765 21.5927 19.2396 20.8941 18.5409ZM19.8235 20.0045L17.726 22.1022C17.7004 22.1235 17.6762 22.1466 17.6534 22.1713C17.2119 22.6513 16.5017 22.817 15.7953 22.5704C9.45134 20.3564 4.34227 15.2469 2.12846 8.90242C1.87497 8.17602 2.05785 7.42343 2.59438 6.98506C2.61477 6.96841 2.6343 6.95068 2.65284 6.932L4.78849 4.77954C4.85928 4.7087 4.94203 4.69812 4.98501 4.69812C5.02803 4.69812 5.11069 4.70865 5.18152 4.77954L8.54211 8.14047C8.65047 8.24884 8.65047 8.42512 8.54216 8.53348L7.05523 10.0205C6.81488 10.2608 6.76417 10.6318 6.93112 10.9278C8.54472 13.7887 10.9095 16.1537 13.7701 17.7673C14.0661 17.9343 14.437 17.8835 14.6774 17.6432L16.0699 16.2506C16.1783 16.1422 16.3543 16.1421 16.4629 16.2506L19.8235 19.6115C19.9318 19.7199 19.9318 19.8962 19.8235 20.0045Z" fill="#0B89CE"/>
<path d="M12.6006 4.09531C12.1825 4.09531 11.8435 4.43427 11.8435 4.8524C11.8435 5.27052 12.1824 5.60949 12.6006 5.60949C16.1778 5.60949 19.0881 8.51998 19.0881 12.0975C19.0881 12.5156 19.427 12.8546 19.8451 12.8546C20.2632 12.8546 20.6021 12.5156 20.6021 12.0975C20.6021 7.68509 17.0126 4.09531 12.6006 4.09531Z" fill="#0B89CE"/>
<path d="M21.2959 3.40155C19.2297 1.33522 16.4825 0.197266 13.5605 0.197266C13.1424 0.197266 12.8035 0.53623 12.8035 0.954356C12.8035 1.37248 13.1424 1.71145 13.5605 1.71145C18.7577 1.71145 22.9859 5.93996 22.9859 11.1375C22.9859 11.5556 23.3249 11.8946 23.743 11.8946C24.1611 11.8946 24.5 11.5556 24.5 11.1375C24.5 8.21523 23.3621 5.46792 21.2959 3.40155Z" fill="#0B89CE"/>
</svg>
