<svg width="33" height="18" viewBox="0 0 33 18" fill="none" xmlns="http://www.w3.org/2000/svg">
<path d="M28.4011 11.4453C29.4958 12.4754 30.6511 13.4446 31.6329 14.5786C32.0666 15.0825 32.4772 15.6025 32.7913 16.1873C33.2364 17.0186 32.8333 17.9335 32.0599 17.9831L27.2524 17.981C26.0124 18.0802 25.0233 17.5991 24.1916 16.7819C23.526 16.1284 22.9095 15.4329 22.2695 14.7574C22.0071 14.4813 21.7325 14.2215 21.4044 14.0162C20.7482 13.6056 20.1785 13.7313 19.8034 14.391C19.4215 15.0621 19.3348 15.8051 19.2973 16.5529C19.2458 17.644 18.9036 17.9309 17.7664 17.9809C15.3362 18.0913 13.0299 17.737 10.8873 16.5553C8.99826 15.5136 7.53351 14.043 6.2585 12.3781C3.77622 9.13634 1.87518 5.57405 0.166663 1.91198C-0.217928 1.08692 0.0633451 0.644036 1.00784 0.628319C2.57617 0.598934 4.14431 0.601046 5.71452 0.626207C6.35196 0.635214 6.77393 0.98758 7.02007 1.568C7.8686 3.57901 8.90687 5.49229 10.2101 7.26573C10.5572 7.73787 10.9111 8.21008 11.415 8.54237C11.9725 8.91033 12.397 8.78838 12.6593 8.18976C12.8257 7.81019 12.8986 7.40135 12.9361 6.99488C13.0603 5.59629 13.0767 4.20006 12.8588 2.80637C12.725 1.93658 12.2167 1.37349 11.3163 1.20893C10.8568 1.125 10.9252 0.960183 11.1476 0.707402C11.534 0.271418 11.8975 0 12.622 0H18.0553C18.9106 0.162702 19.1006 0.533083 19.2177 1.36262L19.2223 7.17969C19.213 7.50081 19.3887 8.45385 19.9888 8.66637C20.4692 8.81771 20.7857 8.44733 21.074 8.15379C22.3748 6.82304 23.3033 5.25032 24.1327 3.62181C24.5008 2.90571 24.8173 2.16209 25.1241 1.41903C25.3513 0.867681 25.708 0.596387 26.3523 0.608377L31.5815 0.61285C31.7366 0.61285 31.8934 0.615024 32.0436 0.639812C32.9247 0.78456 33.1663 1.14991 32.8941 1.97926C32.4653 3.28044 31.6309 4.36481 30.8151 5.45415C29.9431 6.61716 29.0104 7.74042 28.1456 8.91033C27.3511 9.97886 27.4141 10.5173 28.4011 11.4453Z" fill="#879BAF"/>
</svg>
