<svg width="32" height="22" viewBox="0 0 32 22" fill="none" xmlns="http://www.w3.org/2000/svg">
<path fill-rule="evenodd" clip-rule="evenodd" d="M12.696 15.057L12.695 6.26854L21.341 10.6779L12.696 15.057ZM31.68 4.74564C31.68 4.74564 31.367 2.59031 30.408 1.64119C29.191 0.394906 27.827 0.38903 27.202 0.316697C22.724 -4.58956e-06 16.007 0 16.007 0H15.993C15.993 0 9.276 -4.58956e-06 4.798 0.316697C4.172 0.38903 2.809 0.394906 1.591 1.64119C0.632003 2.59031 0.319997 4.74564 0.319997 4.74564C0.319997 4.74564 0 7.27729 0 9.80797V12.1813C0 14.7129 0.319997 17.2436 0.319997 17.2436C0.319997 17.2436 0.632003 19.3989 1.591 20.3481C2.809 21.5944 4.408 21.5553 5.12 21.6853C7.68 21.9257 16 22 16 22C16 22 22.724 21.9902 27.202 21.6735C27.827 21.6002 29.191 21.5944 30.408 20.3481C31.367 19.3989 31.68 17.2436 31.68 17.2436C31.68 17.2436 32 14.7129 32 12.1813V9.80797C32 7.27729 31.68 4.74564 31.68 4.74564Z" fill="#879BAF"/>
</svg>
